# xmcd
#
# Track frame offsets:
#	150
#	9950
#	21827
#	38522
#	51057
#	63245
#	74268
#	90209
#	105400
#
# Disc length: 1513 seconds
#
# Revision: 1
# Processed by: cddbd v1.5.2PL0 Copyright (c) Steve Scherf et al.
# Submitted via: audiograbber 1.83.01
#
DISCID=5b05e709
DTITLE=Catfish Willie and The Bucklebusters - Cartoon and Western
DYEAR=2010
DGENRE=Country swing
TTITLE0=The Buckle Buster Bounce
TTITLE1=A Coffee and a Cigarette
TTITLE2=Right or Wrong
TTITLE3=The Buckle Buster Boogie
TTITLE4=Sweet Georgia Brown
TTITLE5=Sweet Jenny Rose
TTITLE6=Singin in the Bathtub
TTITLE7=Drivin Nails in My Coffin
TTITLE8=Over the Waves
EXTD=
EXTT0=
EXTT1=
EXTT2=
EXTT3=
EXTT4=
EXTT5=
EXTT6=
EXTT7=
EXTT8=
PLAYORDER=
